<?xml version="1.0" encoding="UTF-8"?>
<svg width="800px" height="800px" fill="none" viewBox="0 0 24 24" xmlns="http://www.w3.org/2000/svg">
    <path d="m19.099 10.66c1.112 1.3142 0.8807 2.9213 0.8808 4.3398 0 3.9062-5.2669 5-7.9801 5-2.7132 0-7.9801-1.0938-7.9801-5 1e-5 -1.4185-0.23119-3.0256 0.88072-4.3398m14.199 0c-0.1945-0.2299-0.4301-0.4508-0.7153-0.6602m0.7153 0.6602c0.7 0.4032 0.8788-1.1055 0.8808-1.5977v-1.8749c0-1.625-1.1172-2.1875-2.0748-2.1875s-2.8729 1.5624-3.5113 1.5624c-0.7661 0-0.9136-0.15614-2.394-0.15614-1.4803 0-1.6279 0.15614-2.394 0.15614-0.63841 0-2.5536-1.5625-3.5112-1.5625-0.95761 0-2.0748 0.5625-2.0748 2.1875v1.875c0.00193 0.49219 0.18077 2.0009 0.88071 1.5977m0 0c0.19453-0.2299 0.43016-0.4508 0.71533-0.6602" stroke="#1C274C" stroke-linecap="round" stroke-width="1.5"/>
    <path d="m12.826 16c0 0.1726-0.3611 0.3125-0.8065 0.3125-0.4453 0-0.8064-0.1399-0.8064-0.3125s0.3611-0.3125 0.8064-0.3125c0.4454 0 0.8065 0.1399 0.8065 0.3125z" stroke="#1C274C" stroke-width="1.5"/>
    <path d="m15.5 13.594c0 0.4314-0.2166 0.7812-0.4839 0.7812-0.2672 0-0.4838-0.3498-0.4838-0.7812 0-0.4315 0.2166-0.7813 0.4838-0.7813 0.2673 0 0.4839 0.3498 0.4839 0.7813z" stroke="#1C274C" stroke-width="1.5"/>
    <path d="m9.5 13.594c0 0.4314-0.21664 0.7812-0.48387 0.7812-0.26724 0-0.48387-0.3498-0.48387-0.7812 0-0.4315 0.21663-0.7813 0.48387-0.7813 0.26723 0 0.48387 0.3498 0.48387 0.7813z" stroke="#1C274C" stroke-width="1.5"/>
    <path d="m22 15.469c-0.4839-0.3126-2.5807-1.0938-3.3871-1.0938" stroke="#1C274C" stroke-linecap="round" stroke-width="1.5"/>
    <path d="m20.387 17.969c-0.4838-0.3126-1.6129-1.0938-2.4193-1.0938" stroke="#1C274C" stroke-linecap="round" stroke-width="1.5"/>
    <path d="m2 15.469c0.48387-0.3126 2.5806-1.0938 3.3871-1.0938" stroke="#1C274C" stroke-linecap="round" stroke-width="1.5"/>
    <path d="m3.6128 17.969c0.48388-0.3126 1.6129-1.0938 2.4194-1.0938" stroke="#1C274C" stroke-linecap="round" stroke-width="1.5"/>
</svg>
