<?xml version="1.0" encoding="UTF-8"?>
<svg width="20px" height="20px" viewBox="0 0 24 24" xmlns="http://www.w3.org/2000/svg">
    <path d="M16.19 2H7.81C4.17 2 2 4.17 2 7.81V16.18C2 19.83 4.17 22 7.81 22H16.18C19.82 22 21.99 19.83 21.99 16.19V7.81C22 4.17 19.83 2 16.19 2Z" fill="#FF3055" opacity=".4"/>
    <path d="m15.53 8.4697c0.2929 0.29289 0.2929 0.76777 0 1.0607l-2.4696 2.4697 2.4696 2.4697c0.2929 0.2929 0.2929 0.7677 0 1.0606s-0.7677 0.2929-1.0606 0l-2.4697-2.4696-2.4697 2.4696c-0.29289 0.2929-0.76777 0.2929-1.0607 0s-0.29289-0.7677 0-1.0606l2.4696-2.4697-2.4696-2.4697c-0.29289-0.29289-0.29289-0.76777 0-1.0607s0.76777-0.29289 1.0607 0l2.4697 2.4696 2.4697-2.4696c0.2929-0.29289 0.7677-0.29289 1.0606 0z" fill="#fff"/>
</svg>
