<?xml version="1.0" encoding="UTF-8"?>
<svg width="20px" height="20px" viewBox="0 0 24 24" xmlns="http://www.w3.org/2000/svg">
    <path d="M16.19 2H7.81C4.17 2 2 4.17 2 7.81V16.18C2 19.83 4.17 22 7.81 22H16.18C19.82 22 21.99 19.83 21.99 16.19V7.81C22 4.17 19.83 2 16.19 2Z" fill="#3DDC84" opacity=".4"/>
    <path d="m10.58 15.58c-0.2 0-0.39-0.08-0.53-0.22l-2.83-2.83c-0.29-0.29-0.29-0.77 0-1.06s0.77-0.29 1.06 0l2.3 2.3 5.14-5.14c0.29-0.29 0.77-0.29 1.06 0s0.29 0.77 0 1.06l-5.67 5.67c-0.14 0.14-0.33 0.22-0.53 0.22z" fill="#fff"/>
</svg>
